Coordinates
version=1
nRows=24
nColumns=24
inDegrees=yes

Units are S.I. units (second, meters, Newtons, ...)
Angles are in degrees.

endheader
time	pelvis_tilt	pelvis_list	pelvis_rotation	pelvis_tx	pelvis_ty	pelvis_tz	hip_flexion_r	hip_adduction_r	hip_rotation_r	knee_angle_r	ankle_angle_r	subtalar_angle_r	mtp_angle_r	hip_flexion_l	hip_adduction_l	hip_rotation_l	knee_angle_l	ankle_angle_l	subtalar_angle_l	mtp_angle_l	lumbar_extension	lumbar_bending	lumbar_rotation
     43.78000000	     -7.96285747	      2.52892978	      4.70813502	     -0.00732730	      0.95181040	      0.03105324	     -7.80855794	      2.58037971	    -10.29994083	    -31.11750522	    -24.65375538	     -1.67982037	      0.00000000	     26.09142832	      7.91238675	      7.38961942	    -22.34953958	     15.54325561	      4.66096835	      0.00000000	     -7.79269178	     -1.97509371	      8.18346611
     43.79000000	     -7.93948965	      2.23851253	      5.08573309	     -0.00738095	      0.94965049	      0.02998012	     -7.31971902	      2.80967889	    -10.54575869	    -35.11767958	    -25.02476185	     -0.19342029	      0.00000000	     25.03530822	      7.83419112	      8.57503418	    -17.48373944	     15.53986394	      4.17845324	      0.00000000	     -7.68473670	     -1.68972304	      7.99495683
     43.80000000	     -7.90912019	      2.10673947	      5.38497251	     -0.00759196	      0.94652986	      0.02905765	     -6.68342432	      2.86712475	    -10.69442466	    -39.41498299	    -25.14545311	      0.80559517	      0.00000000	     24.11652781	      7.84442121	      9.56763638	    -13.44723824	     15.41663157	      2.96254653	      0.00000000	     -7.58140678	     -1.63728260	      7.67015318
     43.81000000	     -7.61535722	      2.07327040	      5.65368976	     -0.00782254	      0.94274796	      0.02805396	     -6.28254544	      2.77686803	    -10.97175988	    -43.83531256	    -24.93086345	      1.49082836	      0.00000000	     23.07762418	      7.92671904	     10.32109518	    -10.37034032	     15.56826146	      1.72058791	      0.00000000	     -7.79371391	     -1.65112065	      7.28064430
     43.82000000	     -7.14582458	      2.16493558	      5.90420863	     -0.00789126	      0.93816119	      0.02712795	     -6.04792107	      2.50386466	    -11.29499077	    -48.28487342	    -24.56200709	      2.21914367	      0.00000000	     22.12533565	      8.15476586	     10.66136093	     -8.58203413	     15.73967853	      0.60506874	      0.00000000	     -8.24192138	     -1.75929583	      6.89192569
     43.83000000	     -6.44434744	      2.27415932	      6.08477781	     -0.00781290	      0.93294079	      0.02596707	     -6.05232862	      2.10537619	    -11.66744699	    -52.74839184	    -23.97495737	      3.19179019	      0.00000000	     21.26010304	      8.47686437	     10.61525151	     -8.18884831	     15.79437263	      1.07303885	      0.00000000	     -8.91283051	     -1.82099745	      6.45721143
     43.84000000	     -5.64828927	      2.54363136	      6.30280531	     -0.00779626	      0.92731733	      0.02443075	     -6.17452302	      1.38985359	    -12.23019293	    -57.22903269	    -23.15695901	      4.59943161	      0.00000000	     20.61111832	      8.99642498	     10.31371284	     -9.21222333	     15.36688504	      1.60218217	      0.00000000	     -9.69869104	     -1.99802828	      5.92663537
     43.85000000	     -4.84804530	      3.04387139	      6.65451472	     -0.00780444	      0.92091349	      0.02277081	     -6.29783386	      0.33622826	    -12.95293670	    -61.75546316	    -21.67384131	      6.31533168	      0.00000000	     20.22727382	      9.79877838	      9.94784968	    -11.57687579	     12.45539939	      0.68252056	      0.00000000	    -10.51435301	     -2.42454690	      5.14882089
     43.86000000	     -3.85578224	      3.42171534	      6.99030216	     -0.00790111	      0.91368115	      0.02097507	     -6.59244527	     -0.64733144	    -13.74517923	    -66.23970681	    -19.82304447	      7.51977182	      0.00000000	     19.89413554	     10.48069862	      9.01834498	    -15.07029283	      9.02897579	      0.08272679	      0.00000000	    -11.55380585	     -2.63205448	      4.32400061
     43.87000000	     -2.81986663	      3.87785801	      7.30069332	     -0.00792323	      0.90596192	      0.01920344	     -6.94645956	     -1.79137040	    -14.58717595	    -70.63541052	    -17.92402031	      8.04675816	      0.00000000	     19.52829479	     11.15840595	      7.84868949	    -18.80697234	      7.01403698	     -1.64461512	      0.00000000	    -12.64595863	     -2.88945195	      3.51365238
     43.88000000	     -1.97021736	      4.49006455	      7.73060613	     -0.00893564	      0.89757486	      0.01705638	     -6.94212619	     -3.24443374	    -15.60821458	    -75.22045336	    -15.83806319	      8.14935153	      0.00000000	     19.60331427	     12.17231624	      6.79179901	    -23.32007017	      9.65510609	     -1.86163502	      0.00000000	    -13.67371291	     -3.31276970	      2.38138630
     43.89000000	     -1.48933194	      4.96766626	      8.48249551	     -0.01142199	      0.88853311	      0.01478515	     -6.37205414	     -4.58129981	    -16.88527036	    -79.81291702	    -13.51776142	      7.41807683	      0.00000000	     20.65555827	     13.10564747	      5.48729973	    -29.20020875	     14.70552950	     -0.49265333	      0.00000000	    -14.47707585	     -3.62548272	      0.77149503
     43.90000000	     -1.21737942	      5.23402307	      9.37783158	     -0.01476234	      0.87977709	      0.01278189	     -5.42898689	     -5.64670932	    -18.04874360	    -84.17360653	    -10.81334834	      6.52775988	      0.00000000	     22.08707260	     13.81718004	      4.86121306	    -35.27874020	     18.77683451	      0.59985451	      0.00000000	    -15.21216751	     -3.74621198	     -1.05695648
     43.91000000	     -0.70823041	      5.32472605	     10.19896717	     -0.01818019	      0.87276935	      0.01158626	     -4.64319349	     -6.33500158	    -18.97440404	    -87.95799656	     -7.68269286	      5.50377552	      0.00000000	     22.84451062	     14.28916323	      5.11768023	    -40.73190615	     22.72305700	      2.16546697	      0.00000000	    -16.32074492	     -3.62853126	     -2.72318325
     43.92000000	      0.26539930	      5.54724912	     10.72898325	     -0.02134502	      0.86785166	      0.01127832	     -4.22123966	     -6.98429177	    -19.53839185	    -91.17636081	     -4.53093181	      4.51720193	      0.00000000	     22.22700611	     14.67116775	      5.78161341	    -44.58536043	     25.53051767	      2.93045411	      0.00000000	    -18.08725123	     -3.51250248	     -4.06567397
     43.93000000	      1.16467382	      5.82577605	     10.94872072	     -0.02377170	      0.86412207	      0.01167829	     -3.61258723	     -7.62843799	    -19.69015089	    -93.88523085	     -1.63297801	      3.42102132	      0.00000000	     20.88538091	     14.95906633	      6.47884626	    -47.01408750	     27.86553341	      3.11443817	      0.00000000	    -19.65391508	     -3.55142746	     -4.84896143
     43.94000000	      1.29675561	      5.75662227	     10.89234297	     -0.02605574	      0.86068577	      0.01297011	     -1.83669566	     -7.92600357	    -19.38118263	    -96.22408741	      0.84840022	      2.00007729	      0.00000000	     19.87704989	     14.77732501	      6.91539928	    -48.38922866	     29.83560503	      3.19680957	      0.00000000	    -20.12096334	     -3.57341614	     -5.25971384
     43.95000000	      0.94898832	      5.47227603	     10.53066493	     -0.02823712	      0.85784488	      0.01474376	      0.75029024	     -7.98037970	    -18.64572285	    -98.14843809	      3.15620836	      0.37971656	      0.00000000	     18.99028495	     14.29331900	      7.20832164	    -48.93246832	     31.30150562	      2.99235353	      0.00000000	    -19.88386513	     -3.53710199	     -5.56496216
     43.96000000	      0.50214202	      5.12301885	      9.93180185	     -0.02940859	      0.85649548	      0.01688928	      3.45730146	     -7.81302948	    -17.64981560	    -99.35695998	      5.20049003	     -1.20698983	      0.00000000	     17.83848471	     13.50311204	      7.09948609	    -48.83209707	     32.82067741	      3.30982024	      0.00000000	    -19.35850159	     -3.50408249	     -5.85424422
     43.97000000	     -0.24401200	      4.57555674	      9.26045083	     -0.03101641	      0.85620782	      0.01911313	      6.68155566	     -7.32914039	    -16.48373644	    -99.98859422	      7.03163414	     -2.79352656	      0.00000000	     16.85250217	     12.37505678	      6.63176669	    -48.21574689	     34.09840087	      3.98604673	      0.00000000	    -18.51331419	     -3.24857664	     -6.17230528
     43.98000000	     -1.04260224	      4.04320861	      8.37017796	     -0.03318285	      0.85758201	      0.02129556	     10.07808613	     -6.79332042	    -15.07525739	   -100.06336017	      8.35129352	     -4.16945539	      0.00000000	     15.66428228	     11.17344076	      5.83985667	    -46.84669846	     34.82267711	      4.59733421	      0.00000000	    -17.70390662	     -2.92759334	     -6.42413278
     43.99000000	     -1.74784919	      3.48206209	      7.26672915	     -0.03562084	      0.86028981	      0.02342682	     13.39334937	     -6.10470211	    -13.56516076	    -99.47685351	      9.30390322	     -5.26005253	      0.00000000	     14.22187639	      9.85950496	      4.65587192	    -45.07939816	     35.28938289	      5.41200881	      0.00000000	    -17.03337445	     -2.40079172	     -6.44878524
     44.00000000	     -2.31872672	      2.79107348	      6.18120679	     -0.03812425	      0.86404444	      0.02554763	     16.42280584	     -5.12295392	    -12.17563066	    -98.22421335	      9.73160127	     -5.75850972	      0.00000000	     12.52175565	      8.41873716	      3.40655605	    -43.03011470	     35.14340348	      6.15797476	      0.00000000	    -16.52625764	     -1.65928020	     -6.62145642
     44.01000000	     -2.73233551	      1.96972929	      5.06750685	     -0.03965477	      0.86921670	      0.02791154	     18.92411733	     -3.81711838	    -10.94143305	    -96.17354517	     10.37208415	     -6.11105430	      0.00000000	     10.36436622	      6.86969190	      2.21577175	    -40.50971928	     34.31627141	      6.76999107	      0.00000000	    -16.02019917	     -0.80291615	     -6.93874875
